<?xml version="1.0" encoding="utf-8"?>
<!-- Generator: Adobe Illustrator 24.1.2, SVG Export Plug-In . SVG Version: 6.00 Build 0)  -->
<svg version="1.1" id="Layer_1" xmlns="http://www.w3.org/2000/svg" xmlns:xlink="http://www.w3.org/1999/xlink" x="0px" y="0px"
	 viewBox="0 0 249.9 63.8" style="enable-background:new 0 0 249.9 63.8;" xml:space="preserve">
<style type="text/css">
	.st0{fill:#FFFFFF;}
</style>
<path class="st0" d="M95.6,63.8l6.8-9.1h-3.6l-6.9,9.1H95.6z M109.5,63.8l6.8-9.1h-3.6l-6.8,9.1H109.5z M123.4,63.8l6.8-9.1h-3.6
	l-6.8,9.1H123.4z M81.6,63.8l6.8-9.1h-3.6L78,63.8H81.6z M137.3,63.8l6.8-9.1h-3.6l-6.8,9.1H137.3z M87.5,46.6v2.7h-1.6v-7.9h2.8
	c0.5,0,1,0.1,1.5,0.2c0.4,0.1,0.7,0.3,1,0.5c0.2,0.2,0.5,0.5,0.6,0.8c0.1,0.3,0.2,0.7,0.2,1c0,0.4-0.1,0.7-0.2,1
	c-0.1,0.3-0.4,0.6-0.6,0.8c-0.3,0.2-0.7,0.4-1,0.5c-0.5,0.1-1,0.2-1.5,0.2L87.5,46.6L87.5,46.6z M87.5,45.4h1.2c0.3,0,0.5,0,0.8-0.1
	c0.2-0.1,0.4-0.2,0.5-0.3c0.2-0.1,0.3-0.3,0.3-0.5c0.1-0.2,0.1-0.4,0.1-0.6c0-0.2,0-0.4-0.1-0.6c-0.1-0.2-0.2-0.3-0.3-0.4
	c-0.2-0.1-0.3-0.2-0.5-0.3c-0.3-0.1-0.5-0.1-0.8-0.1h-1.2V45.4z M103,45.4c0,0.5-0.1,1.1-0.3,1.6c-0.2,0.5-0.5,0.9-0.9,1.3
	c-0.4,0.4-0.9,0.6-1.4,0.9c-1.2,0.4-2.5,0.4-3.6,0c-1.6-0.5-2.6-2-2.6-3.7c0-0.5,0.1-1.1,0.3-1.6c0.2-0.5,0.5-0.9,0.9-1.3
	c0.4-0.4,0.9-0.6,1.4-0.9c1.2-0.4,2.5-0.4,3.6,0c1,0.4,1.9,1.1,2.3,2.1C102.9,44.4,103,44.9,103,45.4z M101.3,45.4
	c0-0.4-0.1-0.8-0.2-1.2c-0.1-0.3-0.3-0.6-0.5-0.9c-0.2-0.2-0.5-0.4-0.9-0.5c-0.8-0.3-1.6-0.3-2.3,0c-0.3,0.1-0.6,0.3-0.9,0.5
	c-0.2,0.3-0.4,0.6-0.5,0.9c-0.3,0.8-0.3,1.6,0,2.3c0.1,0.3,0.3,0.6,0.5,0.9c0.3,0.2,0.6,0.4,0.9,0.5c0.8,0.3,1.6,0.3,2.3,0
	c0.3-0.1,0.6-0.3,0.9-0.5c0.2-0.2,0.4-0.5,0.5-0.9C101.2,46.2,101.3,45.8,101.3,45.4z M110.1,42.9c0,0.1-0.1,0.2-0.2,0.2
	c-0.1,0-0.1,0-0.2,0c-0.1,0-0.2,0-0.3-0.1c-0.1,0-0.2-0.1-0.3-0.2c-0.2-0.1-0.3-0.1-0.5-0.2c-0.2,0-0.4-0.1-0.7-0.1
	c-0.2,0-0.4,0-0.6,0.1c-0.2,0-0.3,0.1-0.4,0.2c-0.1,0.1-0.2,0.2-0.3,0.3c-0.1,0.1-0.1,0.3-0.1,0.4c0,0.2,0,0.3,0.2,0.5
	c0.1,0.1,0.3,0.2,0.5,0.3c0.2,0.1,0.4,0.2,0.7,0.2c0.3,0.1,0.5,0.2,0.7,0.2c0.3,0.1,0.5,0.2,0.7,0.3c0.2,0.1,0.5,0.2,0.7,0.4
	c0.2,0.2,0.4,0.4,0.5,0.6c0.1,0.3,0.2,0.5,0.2,0.8c0,0.3-0.1,0.7-0.2,1c-0.1,0.3-0.3,0.6-0.6,0.8c-0.3,0.2-0.6,0.4-1,0.5
	c-0.4,0.1-0.8,0.2-1.3,0.2c-0.3,0-0.5,0-0.8-0.1c-0.3,0-0.5-0.1-0.8-0.2c-0.2-0.1-0.5-0.2-0.7-0.3c-0.2-0.1-0.4-0.3-0.6-0.4l0.5-0.7
	c0,0,0.1-0.1,0.2-0.1c0.1,0,0.1,0,0.2,0c0.1,0,0.2,0,0.3,0.1c0.1,0.1,0.3,0.2,0.4,0.2c0.2,0.1,0.3,0.2,0.5,0.2
	c0.2,0.1,0.5,0.1,0.8,0.1c0.4,0,0.8-0.1,1.1-0.3c0.3-0.2,0.4-0.5,0.4-0.9c0-0.2,0-0.4-0.2-0.5c-0.1-0.1-0.3-0.2-0.5-0.3
	c-0.2-0.1-0.4-0.2-0.7-0.2c-0.2-0.1-0.5-0.1-0.7-0.2c-0.3-0.1-0.5-0.2-0.7-0.3c-0.2-0.1-0.5-0.2-0.7-0.4c-0.2-0.2-0.4-0.4-0.5-0.6
	c-0.1-0.3-0.2-0.6-0.2-0.9c0-0.3,0.1-0.6,0.2-0.9c0.1-0.3,0.3-0.5,0.5-0.7c0.3-0.2,0.6-0.4,0.9-0.5c0.4-0.1,0.8-0.2,1.2-0.2
	c0.5,0,1,0.1,1.4,0.2c0.4,0.1,0.8,0.3,1.1,0.6L110.1,42.9z M114.8,42.1c0,0.1,0,0.2-0.1,0.3c0,0.1-0.1,0.2-0.2,0.3
	c-0.1,0.1-0.2,0.2-0.3,0.2c-0.1,0-0.3,0.1-0.4,0.1c-0.1,0-0.2,0-0.3-0.1c-0.1,0-0.2-0.1-0.3-0.2c-0.1-0.1-0.2-0.2-0.2-0.3
	c0-0.1-0.1-0.2-0.1-0.3c0-0.1,0-0.2,0.1-0.3c0-0.1,0.1-0.2,0.2-0.3c0.1-0.1,0.2-0.2,0.3-0.2c0.1,0,0.2-0.1,0.3-0.1
	c0.1,0,0.3,0,0.4,0.1c0.1,0,0.2,0.1,0.3,0.2c0.1,0.1,0.2,0.2,0.2,0.3C114.8,41.9,114.8,42,114.8,42.1z M114.6,43.8v5.6h-1.5v-5.6
	H114.6z M123.7,41.5v1.2h-2.6v6.7h-1.6v-6.7h-2.6v-1.2L123.7,41.5z M127.7,42.1c0,0.1,0,0.2-0.1,0.3c0,0.1-0.1,0.2-0.2,0.3
	c-0.1,0.1-0.2,0.2-0.3,0.2c-0.1,0-0.3,0.1-0.4,0.1c-0.1,0-0.2,0-0.3-0.1c-0.1,0-0.2-0.1-0.3-0.2c-0.1-0.1-0.2-0.2-0.2-0.3
	c0-0.1-0.1-0.2-0.1-0.3c0-0.1,0-0.2,0.1-0.3c0-0.1,0.1-0.2,0.2-0.3c0.1-0.1,0.2-0.2,0.3-0.2c0.1,0,0.2-0.1,0.3-0.1
	c0.1,0,0.3,0,0.4,0.1c0.1,0,0.2,0.1,0.3,0.2c0.1,0.1,0.2,0.2,0.2,0.3C127.7,41.9,127.7,42,127.7,42.1z M127.5,43.8v5.6H126v-5.6
	H127.5z M129.6,41.5h1.3c0.1,0,0.2,0,0.3,0.1c0.1,0.1,0.1,0.1,0.2,0.2l2.1,4.8c0.1,0.2,0.1,0.3,0.2,0.5s0.1,0.4,0.2,0.6
	c0.1-0.4,0.2-0.7,0.3-1.1l2.1-4.8c0.1-0.1,0.1-0.2,0.2-0.2c0.1-0.1,0.2-0.1,0.3-0.1h1.3l-3.5,7.9h-1.5L129.6,41.5z M145.7,41.5v1.2
	h-3.9v2.2h3.1v1.1h-3.1v2.2h3.9v1.2h-5.5v-7.9L145.7,41.5L145.7,41.5z M158,41.5v1.2h-2.6v6.7h-1.6v-6.7h-2.6v-1.2L158,41.5z
	 M165.8,41.5v1.2h-3.9v2.2h3.1v1.1h-3.1v2.2h3.9v1.2h-5.5v-7.9L165.8,41.5L165.8,41.5z M174.4,47.5c0.1,0,0.2,0,0.2,0.1l0.7,0.6
	c-0.4,0.4-0.8,0.7-1.3,0.9c-0.6,0.2-1.2,0.3-1.9,0.3c-0.6,0-1.2-0.1-1.7-0.3c-0.5-0.2-0.9-0.5-1.3-0.8c-0.4-0.4-0.7-0.8-0.9-1.3
	c-0.4-1-0.4-2.2,0-3.3c0.2-0.5,0.5-0.9,0.9-1.3c0.4-0.4,0.9-0.6,1.4-0.8c0.6-0.2,1.2-0.3,1.8-0.3c0.6,0,1.2,0.1,1.7,0.3
	c0.5,0.2,0.9,0.4,1.2,0.7l-0.5,0.7l-0.1,0.1c-0.1,0-0.1,0-0.2,0c-0.1,0-0.2,0-0.3-0.1c-0.1-0.1-0.2-0.2-0.4-0.2
	c-0.2-0.1-0.4-0.2-0.6-0.2c-0.3-0.1-0.6-0.1-0.9-0.1c-0.4,0-0.8,0.1-1.1,0.2c-0.3,0.1-0.6,0.3-0.9,0.5c-0.2,0.3-0.4,0.6-0.6,0.9
	c-0.1,0.4-0.2,0.8-0.2,1.2c0,0.4,0.1,0.8,0.2,1.2c0.1,0.3,0.3,0.6,0.6,0.9c0.2,0.2,0.5,0.4,0.9,0.5c0.5,0.2,1.1,0.2,1.7,0.2
	c0.2,0,0.3-0.1,0.5-0.1c0.2,0,0.3-0.1,0.4-0.2c0.1-0.1,0.3-0.2,0.4-0.3C174.2,47.5,174.2,47.4,174.4,47.5
	C174.3,47.5,174.3,47.5,174.4,47.5z M185,49.3h-1.6v-3.4h-4.1v3.4h-1.6v-7.9h1.6v3.4h4.1v-3.4h1.6L185,49.3z M189,41.5
	c0,0,0.1,0,0.1,0c0,0,0.1,0,0.1,0.1l0.1,0.1l4.6,5.3c0-0.1,0-0.2,0-0.4v-5.1h1.4v7.9h-0.9c-0.1,0-0.2,0-0.3,0
	c-0.1-0.1-0.2-0.1-0.2-0.2l-4.6-5.2c0,0.1,0,0.2,0,0.3v5.1H188v-7.9h0.9C188.9,41.5,189,41.5,189,41.5z M206.7,45.4
	c0,0.5-0.1,1.1-0.3,1.6c-0.2,0.5-0.5,0.9-0.9,1.3c-0.4,0.4-0.9,0.6-1.4,0.9c-1.2,0.4-2.5,0.4-3.6,0c-1.6-0.5-2.6-2-2.6-3.7
	c0-0.5,0.1-1.1,0.3-1.6c0.2-0.5,0.5-0.9,0.9-1.3c0.4-0.4,0.9-0.6,1.4-0.9c1.2-0.4,2.5-0.4,3.6,0c1,0.4,1.9,1.1,2.3,2.1
	C206.6,44.3,206.7,44.9,206.7,45.4z M205,45.4c0-0.4-0.1-0.8-0.2-1.2c-0.1-0.3-0.3-0.6-0.5-0.9c-0.2-0.2-0.5-0.4-0.9-0.5
	c-0.8-0.3-1.6-0.3-2.3,0c-0.3,0.1-0.6,0.3-0.9,0.5c-0.2,0.3-0.4,0.6-0.5,0.9c-0.3,0.8-0.3,1.6,0,2.3c0.1,0.3,0.3,0.6,0.5,0.9
	c0.3,0.2,0.6,0.4,0.9,0.5c0.8,0.3,1.6,0.3,2.3,0c0.3-0.1,0.6-0.3,0.9-0.5c0.2-0.2,0.4-0.5,0.5-0.9C204.9,46.2,205,45.8,205,45.4z
	 M210.1,48.1h3.5v1.2h-5.1v-7.9h1.6V48.1z M223.8,45.4c0,0.5-0.1,1.1-0.3,1.6c-0.2,0.5-0.5,0.9-0.9,1.3c-0.4,0.4-0.9,0.6-1.4,0.9
	c-1.2,0.4-2.5,0.4-3.6,0c-1.6-0.5-2.6-2-2.6-3.7c0-0.5,0.1-1.1,0.3-1.6c0.2-0.5,0.5-0.9,0.9-1.3c0.4-0.4,0.9-0.6,1.4-0.9
	c1.2-0.4,2.5-0.4,3.6,0c1,0.4,1.9,1.1,2.3,2.1C223.7,44.4,223.8,44.9,223.8,45.4z M222.1,45.4c0-0.4-0.1-0.8-0.2-1.2
	c-0.1-0.3-0.3-0.6-0.5-0.9c-0.2-0.2-0.5-0.4-0.9-0.5c-0.8-0.3-1.6-0.3-2.3,0c-0.3,0.1-0.6,0.3-0.9,0.5c-0.2,0.3-0.4,0.6-0.5,0.9
	c-0.3,0.8-0.3,1.6,0,2.3c0.1,0.3,0.3,0.6,0.5,0.9c0.3,0.2,0.6,0.4,0.9,0.5c0.8,0.3,1.6,0.3,2.3,0c0.3-0.1,0.6-0.3,0.9-0.5
	c0.2-0.2,0.4-0.5,0.5-0.9C222,46.2,222.1,45.8,222.1,45.4z M230.3,48.3c0.3,0,0.6,0,1-0.1c0.3-0.1,0.5-0.2,0.8-0.2v-1.4h-1.1
	c-0.1,0-0.2,0-0.2-0.1c0-0.1-0.1-0.1-0.1-0.2v-0.8h2.9v3.2c-0.2,0.1-0.5,0.3-0.7,0.4c-0.2,0.1-0.5,0.2-0.8,0.3
	c-0.3,0.1-0.6,0.1-0.9,0.2c-0.3,0-0.7,0-1,0c-0.6,0-1.2-0.1-1.7-0.3c-0.5-0.2-1-0.5-1.4-0.8c-0.4-0.4-0.7-0.8-0.9-1.3
	c-0.2-0.5-0.3-1.1-0.3-1.6c0-0.6,0.1-1.1,0.3-1.6c0.2-0.5,0.5-0.9,0.9-1.3c0.4-0.4,0.9-0.6,1.4-0.8c0.6-0.2,1.3-0.3,1.9-0.3
	c0.6,0,1.3,0.1,1.9,0.3c0.5,0.2,0.9,0.4,1.3,0.7l-0.5,0.7c-0.1,0.1-0.2,0.2-0.4,0.2c-0.1,0-0.2,0-0.3-0.1c-0.1-0.1-0.3-0.1-0.4-0.2
	c-0.1-0.1-0.3-0.1-0.5-0.2c-0.2,0-0.3-0.1-0.5-0.1c-0.2,0-0.5,0-0.7,0c-0.4,0-0.8,0.1-1.2,0.2c-0.3,0.1-0.6,0.3-0.9,0.5
	c-0.2,0.3-0.4,0.6-0.6,0.9c-0.1,0.4-0.2,0.7-0.2,1.1c0,0.4,0.1,0.8,0.2,1.2c0.1,0.3,0.3,0.6,0.6,0.9c0.3,0.2,0.6,0.4,0.9,0.5
	C229.4,48.2,229.9,48.3,230.3,48.3z M237.9,42.1c0,0.1,0,0.2-0.1,0.3c0,0.1-0.1,0.2-0.2,0.3c-0.1,0.1-0.2,0.2-0.3,0.2
	c-0.1,0-0.3,0.1-0.4,0.1c-0.1,0-0.2,0-0.3-0.1c-0.1,0-0.2-0.1-0.3-0.2c-0.1-0.1-0.2-0.2-0.2-0.3c0-0.1-0.1-0.2-0.1-0.3
	c0-0.1,0-0.2,0.1-0.3c0-0.1,0.1-0.2,0.2-0.3c0.1-0.1,0.2-0.2,0.3-0.2c0.1,0,0.2-0.1,0.3-0.1c0.1,0,0.3,0,0.4,0.1
	c0.1,0,0.2,0.1,0.3,0.2c0.1,0.1,0.2,0.2,0.2,0.3C237.9,41.9,237.9,42,237.9,42.1z M237.7,43.8v5.6h-1.5v-5.6H237.7z M246.2,41.5v1.2
	h-3.9v2.2h3.1v1.1h-3.1v2.2h3.9v1.2h-5.5v-7.9L246.2,41.5L246.2,41.5z M77.3,16.3c-0.9-4.1-3.4-6.7-7.9-6.7c-6.6,0-9.9,5.8-9.9,11.7
	s3.2,11.8,9.8,11.9c4.4,0,8-3.5,8.2-7.8h3.4c-1,6.7-5.4,10.7-11.6,10.6c-8.6-0.1-13.2-6.8-13.2-14.7S60.8,6.7,69.5,6.7
	c6,0,10.6,3.3,11.3,9.6L77.3,16.3z M109.2,21.7c0,7.9-4.8,14.6-13.4,14.5c-8.6,0-13.2-6.8-13.2-14.7S87.4,6.9,96,6.9
	S109.2,13.7,109.2,21.7z M86.1,21.5c0,5.9,3.2,11.8,9.8,11.9s9.9-5.8,9.9-11.7c0-5.9-3.2-11.8-9.8-11.9S86.1,15.6,86.1,21.5
	L86.1,21.5z M112.7,7.9h3.4v4.8h0.1c1.3-3.3,5-5.5,9-5.5c7.9,0,10.2,4.1,10.2,10.8l-0.2,17.9h-3.4l0.1-17.3c0-4.8-1.5-8.4-7-8.4
	s-8.7,4-8.9,9.4l-0.1,16.1h-3.4L112.7,7.9z M157,16.3c-0.1-4.2-3.4-6.1-7.3-6.1c-3.1,0-6.6,1.2-6.7,4.7c0,3,3.4,4.1,5.8,4.7l4.6,1
	c3.9,0.6,8,2.9,7.9,7.7c0,6-6.1,8.3-11.3,8.2c-6.5,0-11-3.1-11.5-9.9h3.4c0.2,4.6,3.6,6.9,8.2,7c3.2,0,7.7-1.4,7.7-5.2
	c0-3.2-3-4.3-6.1-5.1l-4.4-1c-4.4-1.2-7.8-2.7-7.7-7.5c0-5.6,5.6-7.7,10.6-7.7c5.6,0,10,3,10.2,9L157,16.3z M166.7,23.1
	c0,5,2.6,10.9,9.2,11c5,0,7.7-2.8,8.9-7h3.4c-1.5,6.3-5.2,9.9-12.3,9.8c-8.9-0.1-12.6-6.9-12.6-14.7c0-7.3,3.9-14.6,12.8-14.5
	s12.5,7.9,12.2,15.6L166.7,23.1z M184.8,20.4c-0.1-5.2-3.3-10-8.9-10c-5.5,0-8.7,4.8-9.3,9.8L184.8,20.4z M191.3,8.4h3.2l0,6.6h0.1
	c1.6-4.4,5.9-7.2,10.6-6.8v3.4c-5.3-0.5-10,3.4-10.5,8.6c0,0,0,0,0,0c0,0.4,0,0.8,0,1.2l-0.1,14.7h-3.4L191.3,8.4z M215.1,8.6h5.7
	v2.9h-5.8l-0.2,18.7c0,2.2,0.3,3.4,2.7,3.7c1,0,2,0,2.9-0.2v2.9c-1,0-2,0.1-3.1,0.1c-4.6,0-6.1-1.5-6-6.3l0.2-19h-4.9V8.6h4.9
	l0.1-8.3h3.4L215.1,8.6z M249.9,22.7c0,7.9-4.8,14.6-13.3,14.5c-8.6,0-13.2-6.8-13.2-14.7S228.3,7.9,236.8,8
	C245.3,8.1,250,14.8,249.9,22.7z M226.9,22.6c0,5.9,3.2,11.8,9.8,11.9s9.9-5.8,9.9-11.7c0-5.9-3.2-11.8-9.8-11.9
	C230.2,10.8,226.9,16.6,226.9,22.6z M39.4,30.3c1.9,4.3,2.2,7.7,0.7,9.1c-0.8,0.6-1.7,0.9-2.7,0.9c-3.2,0-7.8-2.1-12.6-5.6
	c-0.6,0.5-1.2,0.9-1.8,1.4c5.4,3.9,10.6,6.3,14.4,6.3c1.5,0.1,3.1-0.4,4.2-1.5c2.9-2.8,1.5-7.9-0.2-11.7c-1.2-2.5-2.6-5-4.2-7.2
	c-0.5,0.6-0.9,1.2-1.4,1.8C37.1,25.9,38.3,28.1,39.4,30.3z M16.1,27.2c-1.7-1.7-3.2-3.5-4.7-5.3c-0.5,0.6-0.9,1.2-1.4,1.8
	c1.4,1.7,2.9,3.4,4.5,5.1s3.5,3.4,5.3,5c0.6-0.4,1.2-0.9,1.8-1.4C19.7,30.7,17.8,29,16.1,27.2z M28.5,27.3
	C20.9,34.9,12.1,40.1,7,40.1c-1,0.1-1.9-0.2-2.7-0.9c-0.9-0.9-1.2-2.4-0.8-4.3c-0.7-0.1-1.4-0.3-2.1-0.7c-0.6,2.9-0.1,5.1,1.4,6.6
	c1.2,1,2.7,1.6,4.2,1.5c5.8,0,14.8-5.2,23.1-13.4c3.2-3.2,6.1-6.7,8.6-10.5c-0.7-0.2-1.3-0.6-1.9-1C34.4,20.9,31.6,24.2,28.5,27.3z
	 M40.3,3.3c1,1,1.2,2.9,0.6,5.4c0.7,0.1,1.4,0.4,2,0.8c0.9-3.4,0.6-6.2-1-7.7c-1.2-1-2.7-1.6-4.2-1.5c-3.8,0-9,2.2-14.5,6.1
	c0.6,0.5,1.2,0.9,1.8,1.4c4.9-3.4,9.5-5.5,12.7-5.4C38.6,2.3,39.6,2.6,40.3,3.3z M16.1,15.2c1.8-1.8,3.6-3.4,5.6-5
	c-0.6-0.5-1.2-0.9-1.8-1.4c-1.9,1.5-3.7,3.1-5.4,4.8C11.1,17.1,8,21,5.4,25.2c0.7,0.2,1.4,0.5,1.9,1C9.8,22.2,12.8,18.5,16.1,15.2z
	 M40.1,9.4c-2.3,0-4.1,1.9-4.1,4.1c0,2.3,1.9,4.1,4.1,4.1c2.3,0,4.1-1.8,4.1-4.1C44.3,11.3,42.5,9.5,40.1,9.4
	C40.2,9.4,40.1,9.4,40.1,9.4z M40.1,16.4c-1.5,0-2.8-1.3-2.7-2.8c0-1.5,1.3-2.8,2.8-2.7c1.5,0,2.8,1.3,2.7,2.8
	C42.9,15.2,41.6,16.4,40.1,16.4L40.1,16.4z M4.1,25.8c-2.3,0-4.1,1.9-4.1,4.1c0,2.3,1.9,4.1,4.1,4.1l0,0c2.3,0,4.1-1.9,4.1-4.1
	C8.3,27.6,6.4,25.8,4.1,25.8z M4.1,32.7c-0.9,0-1.7-0.4-2.2-1.2c-0.4-0.5-0.6-1.1-0.6-1.7c0.1-1.6,1.5-2.7,3-2.6
	c1.4,0.1,2.5,1.2,2.6,2.6c0,0.6-0.2,1.2-0.6,1.7C5.9,32.3,5,32.8,4.1,32.7L4.1,32.7z M30.2,13.8C22.1,5.5,13.1,0,7.4,0
	C5.8-0.1,4.3,0.4,3.1,1.5C0.2,4.3,1.6,9.4,3.4,13.1c1.2,2.5,2.6,5,4.2,7.2C8,19.8,8.5,19.2,9,18.6c-1.4-2-2.7-4.2-3.7-6.5
	C3.4,7.8,3.1,4.5,4.6,3c0.8-0.6,1.7-0.9,2.7-0.9c5.1,0,13.9,5.4,21.3,13.1c1.7,1.7,3.3,3.5,4.8,5.3c0.5-0.6,0.9-1.2,1.4-1.8
	C33.3,17.1,31.8,15.4,30.2,13.8z"/>
</svg>
